<svg width="63" height="56" viewBox="0 0 63 56" fill="none" xmlns="http://www.w3.org/2000/svg">
<g clip-path="url(#clip0_48_25992)">
<path fill-rule="evenodd" clip-rule="evenodd" d="M4.69141 9.42285V55.1513H58.0989V9.42285H4.69141ZM54.42 51.4845H8.37028V43.183H6.53084V39.5163H8.37028V13.0896H54.42V51.4845Z" fill="#222222"/>
<path fill-rule="evenodd" clip-rule="evenodd" d="M62.7861 13.0886H0V5.84635C0 3.01073 2.31523 0.703125 5.16022 0.703125H57.6259C60.4709 0.703125 62.7861 3.01073 62.7861 5.84635V13.0902V13.0886ZM3.67887 9.42183H59.1072V5.84472C59.1072 5.02989 58.4434 4.36824 57.6259 4.36824H5.16022C4.3427 4.36824 3.67887 5.02989 3.67887 5.84472V9.42183Z" fill="#222222"/>
<path fill-rule="evenodd" clip-rule="evenodd" d="M56.2589 17.2568H6.53027V20.9235H56.2589V17.2568Z" fill="#222222"/>
<path fill-rule="evenodd" clip-rule="evenodd" d="M37.6475 19.0898H33.9688V20.9232H37.6475V19.0898Z" fill="#222222"/>
<path fill-rule="evenodd" clip-rule="evenodd" d="M37.6475 51.4844H33.9688V53.3178H37.6475V51.4844Z" fill="#222222"/>
<path fill-rule="evenodd" clip-rule="evenodd" d="M40.9924 35.8499V39.5166H37.647V51.4849H33.9682V43.1834H6.53027V39.5166H33.9682V20.9238H37.647V35.8499H40.9924Z" fill="#222222"/>
<path fill-rule="evenodd" clip-rule="evenodd" d="M25.7636 31.4951C24.3951 30.6623 22.7862 30.1816 21.0678 30.1816C19.3493 30.1816 17.8794 30.6216 16.5485 31.3908H16.5468C14.2201 32.7336 12.5475 35.0771 12.124 37.8279H15.8765C16.4863 35.5399 18.5825 33.8483 21.0678 33.8483C23.553 33.8483 25.6492 35.5399 26.2591 37.8279H30.0115C29.5995 35.1471 27.9988 32.8526 25.7636 31.4951Z" fill="#157FFF"/>
<path fill-rule="evenodd" clip-rule="evenodd" d="M21.1917 33.8481C18.0981 33.8481 15.5801 31.34 15.5801 28.2551C15.5801 25.1701 18.0981 22.6621 21.1917 22.6621C24.2852 22.6621 26.8032 25.1701 26.8032 28.2551C26.8032 31.34 24.2852 33.8481 21.1917 33.8481ZM21.1917 26.3288C20.1256 26.3288 19.259 27.1925 19.259 28.2551C19.259 29.3176 20.1256 30.1813 21.1917 30.1813C22.2577 30.1813 23.1243 29.3176 23.1243 28.2551C23.1243 27.1925 22.2577 26.3288 21.1917 26.3288Z" fill="#157FFF"/>
</g>
<defs>
<clipPath id="clip0_48_25992">
<rect width="63" height="55" fill="white" transform="translate(0 0.330078)"/>
</clipPath>
</defs>
</svg>
