<svg width="63" height="64" viewBox="0 0 63 64" fill="none" xmlns="http://www.w3.org/2000/svg">
<g clip-path="url(#clip0_48_25298)">
<path fill-rule="evenodd" clip-rule="evenodd" d="M48.4827 57.4722V55.9761H51.64V46.7799C51.64 43.5141 50.7799 40.3037 49.1776 37.4827H53.2636V33.816H46.5255L42.3921 28.7705H20.2764L16.1511 33.816H9.52092V37.4827H13.5039C11.9064 40.302 11.048 43.5092 11.048 46.7718V55.9761H14.4392V57.4722C14.4392 58.0914 14.5454 58.6863 14.7367 59.242H0V62.9087H62.7861V59.242H48.1851C48.378 58.6863 48.4827 58.0914 48.4827 57.4722ZM44.8038 57.4722C44.8038 58.4483 44.0075 59.242 43.0281 59.242C42.0487 59.242 41.2525 58.4483 41.2525 57.4722V55.9761H44.8022V57.4722H44.8038ZM14.7269 48.804H21.6678V52.3094H14.7269V48.804ZM15.5984 41.7166H47.088C47.4788 42.8199 47.7436 43.9688 47.8728 45.1372H37.5752V52.3094H25.3483V45.1372H14.8169C14.9444 43.9688 15.2093 42.8199 15.5984 41.7166ZM47.9627 48.804V52.3094H41.2541V48.804H47.9627ZM25.3483 55.9761H37.5752V57.4722C37.5752 58.0914 37.6815 58.6863 37.8728 59.242H25.0491C25.242 58.6863 25.3483 58.0914 25.3483 57.4722V55.9761ZM22.0258 32.4373H40.6491C40.6491 32.4373 44.982 37.7483 45.1929 38.0498H17.4902C17.7011 37.75 22.0258 32.4373 22.0258 32.4373ZM18.1181 57.4722V55.9761H21.6694V57.4722C21.6694 58.4483 20.8731 59.242 19.8937 59.242C18.9143 59.242 18.1181 58.4483 18.1181 57.4722Z" fill="#222222"/>
<path fill-rule="evenodd" clip-rule="evenodd" d="M0 0.330078V3.99682H25.7505V5.6053C25.7505 8.70656 28.2815 11.2309 31.3931 11.2309C34.5046 11.2309 37.0357 8.70819 37.0357 5.6053V3.99682H62.7861V0.330078H0ZM33.3568 5.6053C33.3568 6.68414 32.4755 7.56416 31.3931 7.56416C30.3107 7.56416 29.4294 6.68577 29.4294 5.6053V3.99682H33.3568V5.6053Z" fill="#157FFF"/>
<path fill-rule="evenodd" clip-rule="evenodd" d="M36.0956 16.843L33.6774 14.0791C32.3742 15.2117 30.4089 15.2117 29.1058 14.0791L26.6875 16.8414C28.0282 18.0082 29.7107 18.59 31.3916 18.59C33.0724 18.59 34.7549 18.0066 36.0956 16.8414V16.843Z" fill="#157FFF"/>
<path fill-rule="evenodd" clip-rule="evenodd" d="M21.8643 21.4756C24.4918 24.0945 27.9418 25.4031 31.3934 25.4031C34.845 25.4031 38.295 24.0945 40.9225 21.4756L38.3211 18.8828C34.5016 22.6897 28.2868 22.6897 24.4673 18.8828L21.8659 21.4756H21.8643Z" fill="#157FFF"/>
</g>
<defs>
<clipPath id="clip0_48_25298">
<rect width="63" height="63" fill="white" transform="translate(0 0.330078)"/>
</clipPath>
</defs>
</svg>
