<svg width="63" height="52" viewBox="0 0 63 52" fill="none" xmlns="http://www.w3.org/2000/svg">
<g clip-path="url(#clip0_48_25981)">
<path fill-rule="evenodd" clip-rule="evenodd" d="M3.17691 43.2805H22.7403V23.9755H25.9173V20.3087H22.7403V10.7997L21.5075 9.57087C19.2233 7.29586 16.1887 6.04102 12.9594 6.04102C9.73021 6.04102 6.69391 7.29423 4.41138 9.57087L3.17855 10.7997V20.3087H0V23.9755H3.17691V43.2805ZM6.88031 21.4707H19.0369V31.2226H6.88031V21.4707ZM6.88031 39.6138V34.8894H19.0369V39.6138H6.88031ZM6.88031 12.1621C8.46795 10.5797 10.7129 9.70613 12.9594 9.70613C15.206 9.70613 17.4493 10.578 19.0386 12.1621V17.804H6.88031V12.1621Z" fill="#157FFF"/>
<path fill-rule="evenodd" clip-rule="evenodd" d="M40.0454 43.2805H59.6089V23.9755H62.7858V20.3087H59.6089V10.7997L58.376 9.57087C56.0935 7.29586 53.0572 6.04102 49.828 6.04102C46.5987 6.04102 43.5624 7.29423 41.2799 9.57087L40.0471 10.7997V20.3087H36.8701V23.9755H40.0471V43.2805H40.0454ZM43.7488 21.4707H55.9055V31.2226H43.7488V21.4707ZM43.7488 39.6138V34.8894H55.9055V39.6138H43.7488ZM43.7488 12.1621C45.3381 10.5797 47.5798 9.70613 49.828 9.70613C52.0762 9.70613 54.3178 10.578 55.9071 12.1621V17.804H43.7505V12.1621H43.7488Z" fill="#157FFF"/>
<path fill-rule="evenodd" clip-rule="evenodd" d="M33.2325 4.24292H36.8672V0.576172H25.9173V4.24292H29.552V47.0184H0V50.6851H62.7861V47.0184H33.2325V4.24292Z" fill="#222222"/>
<path fill-rule="evenodd" clip-rule="evenodd" d="M62.7856 0.576172H57.3115V4.24292H62.7856V0.576172Z" fill="#222222"/>
<path fill-rule="evenodd" clip-rule="evenodd" d="M5.47416 0.576172H0V4.24292H5.47416V0.576172Z" fill="#222222"/>
</g>
<defs>
<clipPath id="clip0_48_25981">
<rect width="63" height="51" fill="white" transform="translate(0 0.330078)"/>
</clipPath>
</defs>
</svg>
