<svg width="63" height="64" viewBox="0 0 63 64" fill="none" xmlns="http://www.w3.org/2000/svg">
<g clip-path="url(#clip0_48_26008)">
<path fill-rule="evenodd" clip-rule="evenodd" d="M40.9156 59.2422H0V62.9089H40.9156V59.2422Z" fill="#222222"/>
<path fill-rule="evenodd" clip-rule="evenodd" d="M36.776 62.909H4.28418V17.4414H10.347V21.1081H7.96306V59.2423H33.0972V33.2182H36.776V62.909Z" fill="#222222"/>
<path fill-rule="evenodd" clip-rule="evenodd" d="M62.7862 31.8771H11.7725V0.330078H62.7862V31.8771ZM15.4513 28.2104H59.1073V3.99682H15.4513V28.2104Z" fill="#157FFF"/>
<path fill-rule="evenodd" clip-rule="evenodd" d="M54.1273 31.8771H20.4337V30.0438C20.4337 26.2809 17.3745 23.2187 13.6139 23.2187H11.7744V8.96078H13.6139C17.3745 8.96078 20.4337 5.91168 20.4337 2.16345V0.330078H54.1273V2.16345C54.1273 5.91168 57.1865 8.96078 60.9471 8.96078H62.7865V23.2187H60.9471C57.1865 23.2187 54.1273 26.2809 54.1273 30.0438V31.8771ZM23.9507 28.2104H50.6086C51.3738 23.895 54.7895 20.4809 59.1077 19.715V12.4678C54.7895 11.7035 51.3755 8.30077 50.6086 3.99682H23.9507C23.1839 8.30077 19.7699 11.7035 15.4517 12.4678V19.715C19.7715 20.4809 23.1871 23.895 23.9507 28.2104Z" fill="#157FFF"/>
<path fill-rule="evenodd" clip-rule="evenodd" d="M24.9103 14.3076H21.2314V17.9744H24.9103V14.3076Z" fill="#157FFF"/>
<path fill-rule="evenodd" clip-rule="evenodd" d="M53.3293 14.3076H49.6504V17.9744H53.3293V14.3076Z" fill="#157FFF"/>
<path fill-rule="evenodd" clip-rule="evenodd" d="M37.4556 24.6034C32.7744 24.6034 28.9648 20.8063 28.9648 16.1406C28.9648 11.4749 32.7744 7.67773 37.4556 7.67773C42.1368 7.67773 45.9464 11.4749 45.9464 16.1406C45.9464 20.8063 42.1368 24.6034 37.4556 24.6034ZM37.4556 11.3445C34.8019 11.3445 32.6436 13.4956 32.6436 16.1406C32.6436 18.7855 34.8019 20.9367 37.4556 20.9367C40.1093 20.9367 42.2676 18.7855 42.2676 16.1406C42.2676 13.4956 40.1093 11.3445 37.4556 11.3445Z" fill="#157FFF"/>
<path fill-rule="evenodd" clip-rule="evenodd" d="M28.7364 35.9092H12.0801V39.5759H28.7364V35.9092Z" fill="#222222"/>
<path fill-rule="evenodd" clip-rule="evenodd" d="M26.1505 49.7434H14.9111V35.9092H26.1505V49.7434ZM18.59 46.0766H22.4716V39.5759H18.59V46.0766Z" fill="#222222"/>
</g>
<defs>
<clipPath id="clip0_48_26008">
<rect width="63" height="63" fill="white" transform="translate(0 0.330078)"/>
</clipPath>
</defs>
</svg>
