<svg width="32" height="25" viewBox="0 0 32 25" fill="none" xmlns="http://www.w3.org/2000/svg">
<path d="M29.3333 12.9997V22.9997C29.3333 23.7361 28.7364 24.333 28 24.333H26.6667C25.9303 24.333 25.3333 23.7361 25.3333 22.9997V21.6663H6.66667V22.9997C6.66667 23.7361 6.06971 24.333 5.33333 24.333H4C3.26363 24.333 2.66667 23.7361 2.66667 22.9997V12.9997L1.00995 12.5855C0.416396 12.4371 0 11.9038 0 11.2919V10.333C0 9.96488 0.298477 9.66634 0.666667 9.66634H3.16667L6.01779 2.06334C6.40809 1.02254 7.40308 0.333008 8.51467 0.333008H23.4853C24.5969 0.333008 25.5919 1.02254 25.9823 2.06334L28.8333 9.66634H31.3333C31.7015 9.66634 32 9.96488 32 10.333V11.2919C32 11.9038 31.5836 12.4371 30.99 12.5855L29.3333 12.9997ZM5.33333 14.9997V17.6663C5.33333 18.4027 5.93029 18.9997 6.66667 18.9997H10.9933C11.1029 18.9997 11.2109 18.9726 11.3076 18.9209C11.6322 18.7473 11.7547 18.3434 11.5811 18.0187C10.5048 16.0061 8.42229 14.9997 5.33333 14.9997ZM26.6667 14.9997C23.5777 14.9997 21.4951 16.0061 20.4188 18.0187C20.2452 18.3434 20.3677 18.7473 20.6924 18.9209C20.7891 18.9726 20.8971 18.9997 21.0067 18.9997H25.3333C26.0697 18.9997 26.6667 18.4027 26.6667 17.6663V14.9997ZM8 2.99967L5.91832 9.24474C5.873 9.38061 5.84991 9.52301 5.84991 9.66634C5.84991 10.4027 6.44685 10.9997 7.18324 10.9997H24.8168C24.9601 10.9997 25.1024 10.9766 25.2384 10.9313C25.9369 10.6983 26.3145 9.94327 26.0817 9.24474L24 2.99967H8Z" fill="#00FF91"/>
</svg>
