<svg width="150" height="38" viewBox="0 0 150 38" fill="none" xmlns="http://www.w3.org/2000/svg">
<mask id="mask0_48_26118" style="mask-type:luminance" maskUnits="userSpaceOnUse" x="0" y="0" width="150" height="38">
<path d="M150 0.0498047H0V37.0557H150V0.0498047Z" fill="white"/>
</mask>
<g mask="url(#mask0_48_26118)">
<path d="M30.7034 2.59469C28.9674 0.8981 26.8185 0.0498047 24.253 0.0498047H11.4704C11.3202 0.0498047 11.1982 0.171794 11.1982 0.321935V17.6576C11.1982 17.8077 11.3202 17.9297 11.4704 17.9297H16.7159V17.9241H24.2548C26.7922 17.9241 28.9374 17.0889 30.6846 15.4186C32.4338 13.7483 33.3083 11.605 33.3083 8.9888C33.3083 6.3726 32.4394 4.29315 30.7053 2.59656L30.7034 2.59469ZM26.3681 11.9597H17.4422C17.2921 11.9597 17.1701 11.8377 17.1701 11.6876V6.26187C17.1701 6.11173 17.2921 5.98974 17.4422 5.98974H26.3681C26.5182 5.98974 26.6402 6.11173 26.6402 6.26187V11.6876C26.6402 11.8377 26.5182 11.9597 26.3681 11.9597Z" fill="#157FFF"/>
<path d="M11.1986 11.9541H0.27213C0.121989 11.9541 0 12.0761 0 12.2262V17.6519C0 17.8021 0.121989 17.9241 0.27213 17.9241H10.9284C11.0785 17.9241 11.2005 18.0461 11.2005 18.1962V28.8524C11.2005 29.0026 11.3225 29.1246 11.4726 29.1246H16.8983C17.0485 29.1246 17.1705 29.0026 17.1705 28.8524V12.2262C17.1705 12.0761 17.0485 11.9541 16.8983 11.9541H11.2005H11.1986Z" fill="#00FF91"/>
<path d="M26.641 11.6861V6.26041C26.641 6.11011 26.5192 5.98828 26.3689 5.98828H17.443C17.2927 5.98828 17.1709 6.11011 17.1709 6.26041V11.6861C17.1709 11.8364 17.2927 11.9582 17.443 11.9582H26.3689C26.5192 11.9582 26.641 11.8364 26.641 11.6861Z" fill="white"/>
<path d="M50.4977 16.5387V28.8559C50.4977 29.006 50.3757 29.128 50.2255 29.128H45.4079C45.2578 29.128 45.1358 29.006 45.1358 28.8559V27.4783C45.1358 27.2137 44.7998 27.1105 44.6422 27.3245C43.6813 28.6269 41.8195 29.4396 39.6181 29.4396C35.8102 29.4396 33.2071 26.9134 33.2071 23.5728C33.2071 19.7255 36.0823 17.3945 40.3557 17.3945H43.6588C44.6309 17.3945 45.1358 16.7733 45.1358 15.9569C45.1358 14.326 43.8539 13.1981 41.6394 13.1981C39.4248 13.1981 38.1842 14.5362 38.006 16.0714C37.9909 16.2065 37.8727 16.306 37.7376 16.306H33.4642C33.3009 16.306 33.1771 16.1634 33.1939 16.002C33.5693 12.2203 36.7279 9.23438 41.9509 9.23438C46.8849 9.23438 50.4995 12.1096 50.4995 16.5387H50.4977ZM45.1358 21.0842C45.1358 20.9341 45.0138 20.8121 44.8636 20.8121H41.1721C39.5393 20.8121 38.3738 21.8218 38.3738 23.3382C38.3738 24.62 39.4623 25.5134 40.9769 25.5134C43.6193 25.5134 45.1339 23.5709 45.1339 21.0842H45.1358Z" fill="#157FFF"/>
<path d="M63.5151 14.052C60.8332 14.052 59.6301 16.2666 59.6301 19.6091V28.8559C59.6301 29.006 59.5082 29.128 59.358 29.128H54.4616C54.3114 29.128 54.1895 29.006 54.1895 28.8559V9.81803C54.1895 9.66789 54.3114 9.5459 54.4616 9.5459H59.358C59.5082 9.5459 59.6301 9.66789 59.6301 9.81803V11.6723C59.6301 11.9463 59.9924 12.0495 60.1332 11.8149C61.1428 10.1352 62.511 9.5459 64.5266 9.5459H66.4691C66.6192 9.5459 66.7412 9.66789 66.7412 9.81803V13.7817C66.7412 13.9319 66.6192 14.0539 66.4691 14.0539H63.5168L63.5151 14.052Z" fill="#157FFF"/>
<path d="M82.2043 36.7833V28.0695C82.2043 27.8349 81.9247 27.7073 81.752 27.8668C80.6541 28.8822 78.9632 29.4396 77.0376 29.4396C71.4036 29.4396 67.5957 25.4383 67.5957 19.337C67.5957 13.2356 71.0921 9.23438 76.6097 9.23438C78.8243 9.23438 80.5603 9.95129 81.7408 11.1487C81.9116 11.3213 82.2043 11.2012 82.2043 10.9591V9.81617C82.2043 9.66603 82.3263 9.54404 82.4765 9.54404H87.3335C87.4837 9.54404 87.6057 9.66603 87.6057 9.81617V36.7814C87.6057 36.9316 87.4837 37.0536 87.3335 37.0536H82.4765C82.3263 37.0536 82.2043 36.9316 82.2043 36.7814V36.7833ZM82.5159 19.337C82.5159 16.0339 80.6129 13.8587 77.7358 13.8587C74.8587 13.8587 72.9575 16.0339 72.9575 19.337C72.9575 22.6401 74.8606 24.7777 77.7358 24.7777C80.611 24.7777 82.5159 22.6025 82.5159 19.337Z" fill="#157FFF"/>
<path d="M91.1748 19.337C91.1748 13.5078 95.4875 9.23438 101.51 9.23438C107.533 9.23438 111.845 13.5078 111.845 19.337C111.845 25.1662 107.533 29.4396 101.51 29.4396C95.4875 29.4396 91.1748 25.1662 91.1748 19.337ZM106.407 19.337C106.407 16.0733 104.425 13.8587 101.51 13.8587C98.5955 13.8587 96.6136 16.0733 96.6136 19.337C96.6136 22.6007 98.5955 24.7777 101.51 24.7777C104.425 24.7777 106.407 22.5631 106.407 19.337Z" fill="#157FFF"/>
<path d="M133.216 29.128H128.32C128.17 29.128 128.048 29.006 128.048 28.8559V27.2756C128.048 27.0223 127.728 26.904 127.569 27.1011C126.385 28.5575 124.435 29.4395 122.104 29.4395C117.712 29.4395 114.837 26.2153 114.837 21.7467V9.81803C114.837 9.66789 114.959 9.5459 115.109 9.5459H119.966C120.116 9.5459 120.238 9.66789 120.238 9.81803V20.5418C120.238 22.9122 121.792 24.6219 124.007 24.6219C126.377 24.6219 128.048 22.7564 128.048 20.2697V9.81803C128.048 9.66789 128.17 9.5459 128.32 9.5459H133.216C133.366 9.5459 133.488 9.66789 133.488 9.81803V28.8577C133.488 29.0079 133.366 29.1299 133.216 29.1299V29.128Z" fill="#157FFF"/>
<path d="M146.776 14.052C144.094 14.052 142.891 16.2666 142.891 19.6091V28.8559C142.891 29.006 142.769 29.128 142.619 29.128H137.722C137.572 29.128 137.45 29.006 137.45 28.8559V9.81803C137.45 9.66789 137.572 9.5459 137.722 9.5459H142.619C142.769 9.5459 142.891 9.66789 142.891 9.81803V11.6723C142.891 11.9463 143.253 12.0495 143.394 11.8149C144.403 10.1352 145.772 9.5459 147.787 9.5459H149.73C149.88 9.5459 150.002 9.66789 150.002 9.81803V13.7817C150.002 13.9319 149.88 14.0539 149.73 14.0539H146.778L146.776 14.052Z" fill="#157FFF"/>
</g>
</svg>
