<svg width="34" height="31" viewBox="0 0 34 31" fill="none" xmlns="http://www.w3.org/2000/svg">
<g clip-path="url(#clip0_48_25288)">
<path d="M30.7034 2.68454C28.9674 0.987943 26.8185 0.139648 24.253 0.139648H11.4704C11.3202 0.139648 11.1982 0.261637 11.1982 0.411778V17.7474C11.1982 17.8975 11.3202 18.0195 11.4704 18.0195H16.7159V18.0139H24.2548C26.7922 18.0139 28.9374 17.1787 30.6846 15.5084C32.4338 13.8381 33.3083 11.6948 33.3083 9.07865C33.3083 6.46245 32.4394 4.383 30.7053 2.68641L30.7034 2.68454ZM26.3681 12.0495H17.4422C17.2921 12.0495 17.1701 11.9275 17.1701 11.7774V6.35172C17.1701 6.20158 17.2921 6.07959 17.4422 6.07959H26.3681C26.5182 6.07959 26.6402 6.20158 26.6402 6.35172V11.7774C26.6402 11.9275 26.5182 12.0495 26.3681 12.0495Z" fill="white"/>
<path d="M11.1986 12.0439H0.27213C0.121989 12.0439 0 12.1659 0 12.316V17.7417C0 17.8919 0.121989 18.0139 0.27213 18.0139H10.9284C11.0785 18.0139 11.2005 18.1359 11.2005 18.286V28.9422C11.2005 29.0924 11.3225 29.2144 11.4726 29.2144H16.8983C17.0485 29.2144 17.1705 29.0924 17.1705 28.9422V12.316C17.1705 12.1659 17.0485 12.0439 16.8983 12.0439H11.2005H11.1986Z" fill="#00FF91"/>
<path d="M26.641 11.7759V6.35026C26.641 6.19997 26.5192 6.07812 26.3689 6.07812H17.443C17.2927 6.07812 17.1709 6.19997 17.1709 6.35026V11.7759C17.1709 11.9262 17.2927 12.0481 17.443 12.0481H26.3689C26.5192 12.0481 26.641 11.9262 26.641 11.7759Z" fill="#157FFF"/>
</g>
<defs>
<clipPath id="clip0_48_25288">
<rect width="34" height="30" fill="white" transform="translate(0 0.139648)"/>
</clipPath>
</defs>
</svg>
