<svg width="150" height="40" viewBox="0 0 150 40" fill="none" xmlns="http://www.w3.org/2000/svg">
<mask id="mask0_48_25194" style="mask-type:luminance" maskUnits="userSpaceOnUse" x="0" y="0" width="150" height="39">
<path d="M150 0H0V38.9536H150V0Z" fill="white"/>
</mask>
<g mask="url(#mask0_48_25194)">
<path d="M30.7034 2.67883C28.9674 0.892942 26.8185 0 24.253 0H11.4704C11.3202 0 11.1982 0.128409 11.1982 0.286453V18.5345C11.1982 18.6925 11.3202 18.8209 11.4704 18.8209H16.7159V18.8151H24.2548C26.7922 18.8151 28.9374 17.9359 30.6846 16.1777C32.4338 14.4195 33.3083 12.1634 33.3083 9.40948C33.3083 6.65558 32.4394 4.46668 30.7053 2.6808L30.7034 2.67883ZM26.3681 12.5367H17.4422C17.2921 12.5367 17.1701 12.4083 17.1701 12.2503V6.53902C17.1701 6.38098 17.2921 6.25257 17.4422 6.25257H26.3681C26.5182 6.25257 26.6402 6.38098 26.6402 6.53902V12.2503C26.6402 12.4083 26.5182 12.5367 26.3681 12.5367Z" fill="white"/>
<path d="M11.1986 12.5312H0.27213C0.121989 12.5312 0 12.6597 0 12.8177V18.5289C0 18.687 0.121989 18.8155 0.27213 18.8155H10.9284C11.0785 18.8155 11.2005 18.9438 11.2005 19.1019V30.3189C11.2005 30.477 11.3225 30.6055 11.4726 30.6055H16.8983C17.0485 30.6055 17.1705 30.477 17.1705 30.3189V12.8177C17.1705 12.6597 17.0485 12.5312 16.8983 12.5312H11.2005H11.1986Z" fill="#00FF91"/>
<path d="M26.641 12.2487V6.53744C26.641 6.37923 26.5192 6.25098 26.3689 6.25098H17.443C17.2927 6.25098 17.1709 6.37923 17.1709 6.53744V12.2487C17.1709 12.4069 17.2927 12.5351 17.443 12.5351H26.3689C26.5192 12.5351 26.641 12.4069 26.641 12.2487Z" fill="#157FFF"/>
<path d="M50.4977 17.3567V30.3222C50.4977 30.4802 50.3757 30.6086 50.2255 30.6086H45.4079C45.2578 30.6086 45.1358 30.4802 45.1358 30.3222V28.8721C45.1358 28.5936 44.7998 28.485 44.6422 28.7101C43.6813 30.0812 41.8195 30.9366 39.6181 30.9366C35.8101 30.9366 33.2071 28.2775 33.2071 24.7611C33.2071 20.7112 36.0823 18.2576 40.3557 18.2576H43.6588C44.6309 18.2576 45.1358 17.6037 45.1358 16.7443C45.1358 15.0276 43.8539 13.8403 41.6394 13.8403C39.4248 13.8403 38.1842 15.2489 38.006 16.8649C37.9909 17.0071 37.8727 17.1118 37.7376 17.1118H33.4642C33.3009 17.1118 33.1771 16.9617 33.1939 16.7918C33.5693 12.8111 36.7279 9.66797 41.9509 9.66797C46.8849 9.66797 50.4995 12.6945 50.4995 17.3567H50.4977ZM45.1358 22.1415C45.1358 21.9835 45.0138 21.8551 44.8636 21.8551H41.172C39.5393 21.8551 38.3738 22.9179 38.3738 24.5141C38.3738 25.8634 39.4623 26.8038 40.9769 26.8038C43.6193 26.8038 45.1339 24.7591 45.1339 22.1415H45.1358Z" fill="white"/>
<path d="M63.5151 14.7394C60.8332 14.7394 59.6301 17.0705 59.6301 20.5889V30.3224C59.6301 30.4804 59.5082 30.6088 59.358 30.6088H54.4616C54.3114 30.6088 54.1895 30.4804 54.1895 30.3224V10.2825C54.1895 10.1245 54.3114 9.99609 54.4616 9.99609H59.358C59.5082 9.99609 59.6301 10.1245 59.6301 10.2825V12.2344C59.6301 12.5228 59.9924 12.6315 60.1332 12.3845C61.1428 10.6164 62.511 9.99609 64.5266 9.99609H66.4691C66.6192 9.99609 66.7412 10.1245 66.7412 10.2825V14.4548C66.7412 14.6129 66.6192 14.7414 66.4691 14.7414H63.5168L63.5151 14.7394Z" fill="white"/>
<path d="M82.2034 38.6669V29.4944C82.2034 29.2475 81.9238 29.1132 81.7511 29.2811C80.6532 30.3499 78.9623 30.9366 77.0367 30.9366C71.4027 30.9366 67.5947 26.7247 67.5947 20.3023C67.5947 13.8798 71.0912 9.66797 76.6088 9.66797C78.8234 9.66797 80.5594 10.4226 81.7399 11.6831C81.9107 11.8647 82.2034 11.7383 82.2034 11.4835V10.2804C82.2034 10.1223 82.3254 9.99394 82.4756 9.99394H87.3326C87.4828 9.99394 87.6048 10.1223 87.6048 10.2804V38.6649C87.6048 38.823 87.4828 38.9514 87.3326 38.9514H82.4756C82.3254 38.9514 82.2034 38.823 82.2034 38.6649V38.6669ZM82.515 20.3023C82.515 16.8254 80.612 14.5357 77.7349 14.5357C74.8578 14.5357 72.9566 16.8254 72.9566 20.3023C72.9566 23.7793 74.8597 26.0294 77.7349 26.0294C80.6101 26.0294 82.515 23.7397 82.515 20.3023Z" fill="white"/>
<path d="M91.1748 20.3023C91.1748 14.1662 95.4875 9.66797 101.51 9.66797C107.533 9.66797 111.845 14.1662 111.845 20.3023C111.845 26.4383 107.533 30.9366 101.51 30.9366C95.4875 30.9366 91.1748 26.4383 91.1748 20.3023ZM106.407 20.3023C106.407 16.8669 104.425 14.5357 101.51 14.5357C98.5955 14.5357 96.6136 16.8669 96.6136 20.3023C96.6136 23.7377 98.5955 26.0294 101.51 26.0294C104.425 26.0294 106.407 23.6982 106.407 20.3023Z" fill="white"/>
<path d="M133.216 30.6088H128.32C128.17 30.6088 128.048 30.4804 128.048 30.3224V28.6589C128.048 28.3923 127.728 28.2678 127.569 28.4753C126.385 30.0083 124.435 30.9368 122.104 30.9368C117.712 30.9368 114.837 27.5428 114.837 22.839V10.2825C114.837 10.1245 114.959 9.99609 115.109 9.99609H119.966C120.116 9.99609 120.238 10.1245 120.238 10.2825V21.5707C120.238 24.0659 121.792 25.8656 124.007 25.8656C126.377 25.8656 128.048 23.9019 128.048 21.2843V10.2825C128.048 10.1245 128.17 9.99609 128.32 9.99609H133.216C133.366 9.99609 133.488 10.1245 133.488 10.2825V30.3244C133.488 30.4824 133.366 30.6108 133.216 30.6108V30.6088Z" fill="white"/>
<path d="M146.776 14.7394C144.094 14.7394 142.891 17.0705 142.891 20.5889V30.3224C142.891 30.4804 142.769 30.6088 142.619 30.6088H137.722C137.572 30.6088 137.45 30.4804 137.45 30.3224V10.2825C137.45 10.1245 137.572 9.99609 137.722 9.99609H142.619C142.769 9.99609 142.891 10.1245 142.891 10.2825V12.2344C142.891 12.5228 143.253 12.6315 143.394 12.3845C144.404 10.6164 145.772 9.99609 147.787 9.99609H149.73C149.88 9.99609 150.002 10.1245 150.002 10.2825V14.4548C150.002 14.6129 149.88 14.7414 149.73 14.7414H146.778L146.776 14.7394Z" fill="white"/>
</g>
</svg>
