<svg width="21" height="23" viewBox="0 0 21 23" fill="none" xmlns="http://www.w3.org/2000/svg">
<path d="M0.656 23V0.599998H10.352C12.3573 0.599998 14.0853 0.930665 15.536 1.592C16.9867 2.232 18.1067 3.16 18.896 4.376C19.6853 5.592 20.08 7.04267 20.08 8.728C20.08 10.392 19.6853 11.832 18.896 13.048C18.1067 14.264 16.9867 15.2027 15.536 15.864C14.0853 16.504 12.3573 16.824 10.352 16.824H3.536L5.84 14.488V23H0.656ZM5.84 15.064L3.536 12.6H10.064C11.664 12.6 12.8587 12.2587 13.648 11.576C14.4373 10.8933 14.832 9.944 14.832 8.728C14.832 7.49067 14.4373 6.53067 13.648 5.848C12.8587 5.16533 11.664 4.824 10.064 4.824H3.536L5.84 2.36V15.064Z" fill="#00FF91"/>
</svg>
