<svg width="28" height="28" viewBox="0 0 28 28" fill="none" xmlns="http://www.w3.org/2000/svg">
<path d="M14.0003 0.666992C21.3641 0.666992 27.3337 6.63653 27.3337 14.0003C27.3337 21.3641 21.3641 27.3337 14.0003 27.3337C6.63653 27.3337 0.666992 21.3641 0.666992 14.0003C0.666992 6.63653 6.63653 0.666992 14.0003 0.666992ZM19.3394 15.1706C18.8789 14.4714 18.5466 13.9665 17.2833 14.1667C14.8959 14.5457 14.6313 14.9635 14.5173 15.6503L14.4851 15.8594L14.4527 16.0799C14.3225 16.9907 14.3274 17.3353 14.7455 17.7747C16.4325 19.5446 17.443 20.8203 17.7491 21.5665C17.8986 21.9315 18.2829 23.0338 18.0185 24.1239C19.6499 23.4758 21.0878 22.4446 22.2207 21.1415C22.3677 20.6431 22.4738 20.0225 22.4738 19.2694V19.1299C22.4738 17.8999 22.4738 17.339 21.6045 16.8422C21.2377 16.6338 20.9639 16.5083 20.7446 16.4089C20.255 16.1862 19.9309 16.0399 19.4934 15.4002C19.4413 15.3241 19.3903 15.2481 19.3394 15.1706ZM14.0003 3.11143C10.9104 3.11143 8.12115 4.39843 6.13926 6.46561C6.37521 6.62947 6.58082 6.8597 6.72204 7.17707C6.99404 7.78738 6.99404 8.41526 6.99404 8.97051C6.9935 9.40861 6.99289 9.82326 7.13355 10.1244C7.32623 10.5354 8.15552 10.71 8.88763 10.8635C9.1492 10.9186 9.41892 10.9748 9.66428 11.0427C10.3391 11.2301 10.861 11.8357 11.2795 12.3219C11.4531 12.5245 11.7095 12.8221 11.8381 12.8959C11.9051 12.8478 12.1203 12.6147 12.2269 12.2317C12.3079 11.9399 12.2849 11.6799 12.1655 11.5394C11.4201 10.6596 11.4606 8.96459 11.691 8.34026C12.0539 7.35507 13.1877 7.42777 14.0163 7.48162C14.3254 7.50151 14.6171 7.52063 14.8346 7.49334C15.6646 7.3892 15.9198 6.1275 16.1003 5.88032C16.4898 5.34674 17.6813 4.54313 18.4214 4.04638C17.0703 3.44542 15.5743 3.11143 14.0003 3.11143Z" fill="#00FF91"/>
</svg>
